<svg width="18" height="18" viewBox="0 0 18 18" fill="none" xmlns="http://www.w3.org/2000/svg">
<path d="M15.4629 9.54C15.5829 9.54 15.6943 9.59143 15.7886 9.68571L16.8857 10.7829C17.0743 10.9629 17.0743 11.2629 16.8857 11.4429L16.0286 12.3L14.2714 10.5429L15.1286 9.68571C15.2229 9.59143 15.3429 9.54 15.4629 9.54ZM13.7743 11.04L15.5314 12.7971L10.3371 18H8.57143V16.2343L13.7743 11.04ZM13.7143 1.71429C14.6571 1.71429 15.4286 2.48571 15.4286 3.42857V6.85714L6.85714 15.4286V17.1429H1.71429C0.771429 17.1429 0 16.3714 0 15.4286V3.42857C0 2.48571 0.771429 1.71429 1.71429 1.71429H5.29714C5.65714 0.72 6.6 0 7.71429 0C8.82857 0 9.77143 0.72 10.1314 1.71429H13.7143ZM7.71429 1.71429C7.24286 1.71429 6.85714 2.1 6.85714 2.57143C6.85714 3.04286 7.24286 3.42857 7.71429 3.42857C8.18571 3.42857 8.57143 3.04286 8.57143 2.57143C8.57143 2.1 8.18571 1.71429 7.71429 1.71429Z" fill="#5587E7"/>
</svg>
