<svg width="19" height="18" viewBox="0 0 19 18" fill="none" xmlns="http://www.w3.org/2000/svg">
<path fill-rule="evenodd" clip-rule="evenodd" d="M5.66675 4C5.66675 2.93913 6.08818 1.92172 6.83832 1.17157C7.58847 0.421427 8.60588 0 9.66675 0C10.7276 0 11.745 0.421427 12.4952 1.17157C13.2453 1.92172 13.6667 2.93913 13.6667 4C13.6667 5.06087 13.2453 6.07828 12.4952 6.82843C11.745 7.57857 10.7276 8 9.66675 8C8.60588 8 7.58847 7.57857 6.83832 6.82843C6.08818 6.07828 5.66675 5.06087 5.66675 4ZM5.66675 10C4.34067 10 3.0689 10.5268 2.13121 11.4645C1.19353 12.4021 0.666748 13.6739 0.666748 15C0.666748 15.7956 0.982819 16.5587 1.54543 17.1213C2.10804 17.6839 2.8711 18 3.66675 18H15.6667C16.4624 18 17.2255 17.6839 17.7881 17.1213C18.3507 16.5587 18.6667 15.7956 18.6667 15C18.6667 13.6739 18.14 12.4021 17.2023 11.4645C16.2646 10.5268 14.9928 10 13.6667 10H5.66675Z" fill="#5587E7"/>
</svg>
